<?xml version="1.0" standalone="no"?>
<!DOCTYPE svg PUBLIC "-//W3C//DTD SVG 20010904//EN"
 "http://www.w3.org/TR/2001/REC-SVG-20010904/DTD/svg10.dtd">
<svg version="1.0" xmlns="http://www.w3.org/2000/svg"
 width="140.000000pt" height="40.000000pt" viewBox="0 0 140.000000 40.000000"
 preserveAspectRatio="xMidYMid meet">
<metadata>
Created by potrace 1.16, written by Peter Selinger 2001-2019
</metadata>
<g transform="translate(0.000000,40.000000) scale(0.007000,-0.002000)"
fill="#000000" stroke="none">
<path d="M0 10000 l0 -10000 10000 0 10000 0 0 10000 0 10000 -10000 0 -10000
0 0 -10000z m13201 7868 c50 -15 114 -69 140 -119 60 -118 11 -272 -104 -328
-60 -29 -164 -29 -224 0 -84 41 -144 157 -129 251 14 85 80 166 157 194 44 16
112 17 160 2z m2120 -367 c18 -18 29 -40 29 -56 0 -68 38 -106 121 -119 51 -9
84 -47 84 -98 0 -49 -35 -84 -93 -93 -20 -4 -47 -11 -59 -17 -26 -13 -53 -65
-53 -103 0 -60 -85 -105 -141 -75 -23 13 -49 61 -49 92 0 37 -36 87 -67 93
-74 15 -104 27 -118 48 -17 25 -20 79 -5 108 14 25 62 49 98 49 35 0 79 38 87
74 3 14 7 38 10 52 16 73 102 98 156 45z m-7938 -91 c14 -11 31 -35 37 -54 6
-18 22 -44 36 -57 22 -20 34 -24 81 -22 37 2 64 -3 83 -14 76 -44 61 -136 -28
-174 -67 -28 -82 -51 -82 -127 0 -57 -3 -67 -29 -93 -37 -37 -79 -38 -120 -4
-16 14 -35 41 -41 60 -18 55 -52 75 -127 75 -55 0 -67 4 -88 25 -27 26 -34 80
-14 117 6 11 35 31 64 44 65 28 78 50 76 126 -1 53 2 62 28 89 36 35 86 39
124 9z m4302 -44 c62 -29 107 -76 136 -141 18 -40 23 -76 28 -195 6 -134 8
-149 33 -192 29 -48 85 -99 134 -120 19 -8 112 -14 264 -18 216 -5 238 -7 276
-27 103 -55 144 -127 155 -271 12 -165 64 -246 187 -292 48 -18 78 -20 371
-20 354 0 376 -3 449 -66 62 -53 92 -123 98 -230 3 -49 7 -99 10 -111 l4 -23
438 0 c483 0 501 -2 616 -63 124 -66 231 -210 256 -346 6 -29 10 -172 10 -317
0 -205 3 -264 13 -264 6 0 30 5 52 10 92 21 301 31 424 21 361 -32 655 -157
905 -385 22 -20 43 -36 48 -36 4 0 8 -5 8 -11 0 -6 22 -36 48 -67 62 -73 105
-139 148 -229 34 -72 84 -229 84 -263 0 -47 7 -50 114 -50 120 0 176 -16 234
-66 23 -19 53 -60 69 -92 l28 -57 0 -400 c0 -358 -2 -404 -17 -438 -50 -110
-134 -165 -274 -178 -65 -6 -96 -14 -137 -37 -57 -31 -109 -98 -127 -160 -6
-22 -10 -187 -10 -412 0 -372 0 -375 24 -425 30 -65 104 -131 169 -150 36 -11
97 -15 207 -15 178 0 223 -10 288 -66 23 -19 53 -60 69 -92 l28 -57 3 -352 c2
-228 0 -379 -8 -425 -21 -140 -94 -224 -206 -237 -74 -9 -117 -34 -155 -91
-88 -132 -77 -320 23 -417 81 -78 80 -77 388 -83 314 -6 331 -9 406 -92 58
-63 77 -127 72 -242 -5 -104 -22 -150 -80 -208 -72 -72 -72 -72 -378 -78 -250
-5 -279 -7 -320 -26 -65 -30 -107 -69 -138 -128 -24 -45 -27 -62 -27 -146 0
-86 3 -100 29 -147 54 -98 129 -139 275 -152 140 -12 213 -57 260 -161 27 -59
29 -222 4 -295 -31 -93 -129 -165 -224 -165 -47 0 -113 -35 -152 -81 -64 -74
-67 -98 -67 -513 0 -426 -3 -447 -73 -523 -71 -78 -98 -86 -287 -94 -139 -5
-173 -9 -216 -28 -60 -26 -103 -68 -136 -131 -23 -44 -23 -50 -28 -450 -6
-449 -4 -440 -75 -518 -49 -55 -108 -82 -203 -91 -129 -13 -207 -65 -256 -170
-20 -44 -21 -66 -26 -451 -4 -358 -7 -409 -22 -436 -29 -52 -68 -93 -117 -122
-45 -27 -49 -27 -271 -33 -124 -3 -241 -11 -261 -18 -53 -16 -128 -87 -155
-146 -18 -37 -24 -68 -24 -121 0 -133 -48 -229 -145 -289 l-48 -30 -491 -5
c-434 -4 -495 -7 -528 -22 -113 -51 -157 -123 -168 -272 -11 -159 -51 -229
-163 -288 l-42 -23 -3465 0 -3465 0 -42 23 c-57 30 -111 85 -132 136 -11 24
-20 82 -24 141 -11 158 -63 240 -185 285 -48 18 -78 20 -325 20 -306 0 -323 4
-400 78 -62 59 -79 103 -87 222 -4 58 -13 118 -19 133 -20 50 -83 118 -135
145 l-51 27 -330 5 c-314 5 -332 6 -370 27 -99 53 -141 132 -154 285 -11 140
-49 209 -146 261 -38 21 -57 22 -345 27 l-305 5 -50 27 c-62 33 -108 80 -134
138 -16 36 -21 66 -21 145 0 119 22 177 88 237 71 64 96 70 302 77 164 6 190
9 226 28 102 54 141 125 153 276 10 122 29 166 97 226 62 54 121 71 251 71
123 0 173 18 240 89 58 61 77 120 71 230 -6 126 -50 196 -158 252 l-45 24
-690 5 c-774 6 -715 0 -796 81 -56 56 -71 98 -79 214 -8 117 -29 173 -85 227
-64 62 -94 72 -245 78 -152 7 -213 26 -268 83 -56 58 -77 113 -80 209 -9 214
87 321 303 338 105 8 153 29 209 90 73 81 71 69 68 503 -3 303 -7 398 -18 429
-34 98 -123 161 -244 174 -114 12 -190 63 -236 159 -20 42 -24 66 -24 144 0
119 13 161 68 223 83 92 85 92 417 98 327 6 334 7 408 89 64 70 72 95 72 206
-1 116 -16 157 -84 218 -85 76 -40 71 -681 77 -560 5 -576 6 -620 26 -55 26
-104 74 -133 128 -26 51 -36 204 -17 270 16 59 77 136 130 166 43 24 53 25
275 30 203 5 235 8 275 26 61 28 105 67 138 123 25 42 27 55 27 151 0 96 -2
109 -27 151 -33 56 -76 94 -138 123 -43 20 -66 21 -465 26 -469 6 -463 5 -531
77 -59 62 -77 107 -82 204 -8 152 42 252 154 309 l49 25 475 5 475 5 47 27
c57 34 114 100 129 147 6 20 14 81 18 136 10 138 52 209 155 263 l51 27 375 5
c400 5 395 5 467 58 121 89 138 316 33 435 -69 78 -108 91 -300 97 -151 5
-170 8 -221 32 -68 31 -129 102 -149 172 -19 67 -9 210 17 261 28 53 88 109
143 134 41 19 66 21 266 21 l220 0 -4 114 c-10 252 72 453 253 625 141 133
312 206 510 218 147 8 250 -14 433 -94 7 -3 12 2 12 13 0 37 58 185 99 252 75
125 192 237 309 296 l52 26 0 63 c0 124 50 218 149 279 35 23 44 23 406 28
353 5 372 6 415 27 109 52 150 121 161 269 11 153 48 222 149 282 l45 27 410
5 c452 6 444 5 520 72 61 53 87 118 95 233 7 121 30 176 97 235 62 54 120 70
259 70 126 0 174 12 235 61 22 17 52 52 67 77 25 44 27 57 33 192 5 120 9 154
28 195 29 65 74 112 136 141 l50 24 1455 0 1455 0 50 -24z m-6988 -280 c176
-82 175 -336 -2 -429 -55 -29 -155 -28 -211 1 -187 97 -171 363 26 441 47 18
131 12 187 -13z m11641 -883 c25 -15 60 -48 77 -71 25 -37 30 -55 33 -116 4
-63 0 -80 -22 -124 -82 -161 -305 -174 -411 -24 -25 37 -30 55 -33 116 -6 112
37 187 133 233 69 33 156 28 223 -14z m-13863 -603 c104 -101 10 -271 -132
-240 -24 6 -50 22 -70 44 -29 31 -33 43 -33 88 0 97 59 152 153 145 38 -3 55
-11 82 -37z m15631 -169 c40 -24 69 -95 60 -145 -30 -157 -257 -152 -283 7 -7
45 28 121 65 142 39 21 121 19 158 -4z m-15982 -2022 c35 -28 56 -70 56 -113
0 -49 48 -103 98 -111 75 -12 86 -17 119 -50 72 -72 26 -171 -90 -189 -80 -13
-127 -60 -127 -127 0 -37 -23 -83 -52 -103 -13 -9 -43 -16 -69 -16 -41 0 -51
4 -77 34 -20 23 -32 50 -37 83 -5 40 -34 114 -35 91 0 -5 -9 1 -19 11 -11 11
-41 22 -72 26 -41 6 -61 15 -86 40 -67 67 -32 175 63 190 76 12 85 16 113 46
21 22 31 45 36 82 9 66 19 83 58 107 42 26 88 25 121 -1z m16137 -159 c25 -14
49 -62 49 -98 0 -42 34 -80 78 -87 89 -15 122 -44 122 -105 0 -42 -27 -77 -68
-86 -94 -21 -132 -51 -132 -106 0 -66 -58 -117 -119 -103 -37 8 -71 48 -71 82
0 66 -57 123 -123 123 -58 0 -101 72 -78 129 14 33 59 61 97 61 42 0 92 44 99
88 11 60 15 72 38 92 23 22 76 26 108 10z m-17105 -3719 c20 -12 38 -36 49
-65 58 -152 -118 -262 -237 -149 -56 53 -42 169 25 212 42 27 121 28 163 2z
m17559 -279 c98 -50 156 -147 163 -267 5 -104 -20 -177 -87 -245 -140 -143
-368 -105 -457 76 -36 74 -44 179 -19 259 28 87 107 167 195 196 44 15 162 4
205 -19z m-16891 -1833 c15 -17 26 -43 26 -59 0 -63 47 -110 108 -110 18 0 43
-11 61 -26 25 -21 31 -33 31 -66 0 -67 -22 -88 -112 -103 -47 -7 -88 -54 -88
-100 0 -40 -38 -90 -75 -99 -14 -4 -40 0 -58 8 -35 14 -51 42 -61 107 -8 48
-44 79 -98 86 -79 10 -123 74 -93 137 17 35 43 50 106 60 41 7 75 39 83 79 3
15 8 38 11 52 8 40 43 65 91 65 35 0 47 -5 68 -31z m16781 -1458 c65 -29 128
-91 157 -155 17 -39 22 -69 22 -131 0 -98 -25 -162 -87 -223 -64 -62 -126 -87
-222 -87 -96 0 -158 25 -222 87 -62 61 -87 125 -88 223 0 150 76 254 220 302
56 18 159 11 220 -16z m-15652 -961 c148 -74 205 -278 122 -440 -50 -97 -144
-154 -255 -153 -115 0 -207 62 -259 172 -36 77 -37 201 -3 276 72 158 244 221
395 145z m13976 -386 c26 -19 51 -71 51 -108 0 -33 48 -72 100 -80 54 -8 100
-52 100 -95 0 -47 -44 -89 -105 -100 -60 -11 -90 -42 -99 -103 -8 -48 -21 -69
-53 -86 -59 -32 -127 6 -138 77 -12 76 -41 104 -119 116 -119 19 -111 173 10
191 66 10 100 42 107 101 9 82 86 128 146 87z m-13076 -1444 c34 -27 43 -76
23 -125 -26 -62 -21 -93 23 -134 51 -48 64 -76 57 -117 -13 -65 -78 -90 -153
-59 -58 25 -81 19 -129 -30 -63 -64 -112 -71 -162 -25 -27 25 -29 80 -6 135
21 50 13 76 -41 129 -39 38 -45 49 -45 85 0 80 69 113 157 76 19 -8 44 -15 54
-15 25 0 91 59 82 74 -3 6 -3 8 2 4 4 -4 17 -1 29 7 29 21 79 18 109 -5z
m6192 -2110 c0 -18 6 -26 24 -30 46 -10 36 -30 -16 -31 l-48 -2 60 -7 c69 -7
100 -25 152 -84 20 -22 30 -32 22 -21 -7 11 -22 30 -32 42 -19 22 -16 43 6 43
7 0 19 -9 27 -19 16 -23 30 -18 30 10 0 12 7 19 20 19 23 0 27 -28 6 -36 -22
-8 -27 -31 -14 -60 10 -20 9 -27 -2 -34 -9 -6 -18 -4 -23 3 -6 7 -6 4 -2 -8
18 -51 18 -52 -37 -79 -98 -48 -248 -68 -356 -47 -23 5 -45 11 -49 14 -7 8 -6
81 2 110 5 17 4 19 -4 7 -6 -8 -11 -25 -11 -37 0 -16 -6 -23 -19 -23 -15 0
-18 6 -14 39 4 35 2 39 -21 45 -27 7 -35 29 -14 42 7 4 18 -2 26 -14 19 -28
26 -28 40 3 12 27 48 25 37 -3 -3 -8 13 2 35 21 22 20 51 39 66 43 19 5 23 9
12 16 -10 7 -9 11 6 23 11 8 28 15 38 15 15 0 16 3 7 19 -17 26 -4 53 23 49
17 -2 23 -10 23 -28z m-2777 -102 c18 -18 17 -318 -1 -342 -16 -22 -57 -14
-57 10 0 13 -2 13 -16 0 -40 -41 -116 -29 -151 23 -41 61 -26 183 26 211 29
15 93 12 119 -6 22 -15 22 -15 22 45 0 57 6 68 36 70 5 1 15 -4 22 -11z m1730
-170 c2 -169 2 -177 -18 -183 -24 -8 -40 1 -40 22 0 15 -2 15 -17 0 -27 -23
-68 -30 -107 -17 -40 13 -76 74 -76 128 0 44 23 96 51 116 26 18 90 21 120 6
17 -10 19 -7 19 30 0 54 15 82 43 78 22 -3 22 -7 25 -180z m202 161 c7 -11 10
-39 7 -60 -4 -34 -2 -39 12 -33 9 4 36 9 61 12 35 3 51 -1 72 -17 60 -48 62
-159 3 -218 -37 -37 -72 -42 -119 -18 -26 14 -30 14 -40 -1 -7 -9 -21 -15 -32
-12 -18 3 -19 14 -22 173 -1 93 0 175 2 182 8 20 44 15 56 -8z m1370 6 c17
-20 4 -49 -19 -42 -23 6 -51 -9 -51 -27 0 -8 11 -17 25 -20 34 -9 34 -43 0
-52 -23 -6 -24 -9 -27 -101 -2 -77 -6 -98 -20 -106 -12 -8 -21 -7 -32 2 -13
11 -16 34 -16 106 0 91 -1 93 -25 99 -16 4 -25 13 -25 26 0 13 9 22 25 26 19
5 25 13 25 33 0 30 16 56 40 64 31 11 88 7 100 -8z m1168 3 c7 -7 12 -43 12
-90 0 -43 2 -78 5 -78 3 0 22 18 42 41 27 30 43 39 62 37 37 -4 38 -33 1 -67
l-31 -28 40 -63 c45 -69 48 -82 26 -100 -22 -18 -38 -8 -79 55 -31 46 -40 54
-52 44 -8 -6 -14 -28 -14 -48 0 -40 -14 -61 -41 -61 -26 0 -29 20 -29 195 0
164 2 172 36 174 5 1 15 -4 22 -11z m-4231 -108 c34 -21 47 -49 41 -96 l-3
-29 -88 -3 -87 -3 15 -29 c24 -47 65 -48 117 -3 23 20 50 9 46 -18 -8 -55
-113 -85 -178 -52 -87 45 -91 193 -8 240 35 19 108 16 145 -7z m244 4 c24 -12
30 -21 27 -42 -4 -33 -40 -42 -60 -14 -19 26 -43 33 -65 17 -24 -18 -14 -26
60 -50 69 -22 95 -53 83 -98 -10 -40 -50 -62 -117 -62 -47 0 -62 5 -83 24 -34
32 -35 71 -3 71 13 0 33 -11 45 -25 24 -28 49 -32 77 -12 26 20 13 33 -51 52
-92 27 -120 79 -69 130 19 20 34 25 75 25 28 0 65 -7 81 -16z m135 5 c8 -14 8
-235 -1 -249 -12 -20 -45 -10 -55 16 -11 28 -14 203 -4 228 7 18 49 22 60 5z
m201 -4 c19 -13 22 -13 27 0 7 20 52 19 60 -1 3 -9 6 -69 6 -135 0 -185 -21
-215 -147 -207 -69 4 -103 26 -103 65 0 30 39 32 65 3 38 -42 115 -14 115 43
0 17 -2 17 -22 3 -31 -22 -90 -20 -121 4 -58 46 -62 163 -8 212 36 32 93 38
128 13z m189 0 c5 -13 8 -13 27 0 34 24 94 19 122 -10 23 -22 25 -31 25 -129
0 -97 -2 -105 -20 -111 -39 -12 -50 11 -50 106 0 77 -2 90 -19 99 -45 24 -71
-12 -71 -99 0 -74 -13 -111 -39 -111 -30 0 -41 31 -41 117 0 121 8 153 37 153
13 0 26 -7 29 -15z m419 -15 c29 -28 43 -84 25 -105 -9 -11 -34 -15 -91 -15
-83 0 -98 -10 -64 -44 29 -29 55 -29 96 0 36 25 41 26 55 12 14 -14 14 -18 -1
-42 -35 -53 -150 -58 -199 -9 -60 60 -43 193 29 224 37 16 123 4 150 -21z
m791 -64 l30 -88 17 46 c9 25 24 66 33 91 14 36 21 45 41 45 13 0 26 -6 29
-14 7 -18 -95 -294 -120 -323 -16 -18 -32 -24 -63 -25 -49 0 -63 7 -63 33 0
14 7 19 30 19 20 0 35 8 46 25 15 24 14 29 -29 137 -48 120 -49 153 -4 146 18
-2 28 -20 53 -92z m1140 83 c4 -8 9 -8 17 0 25 25 107 3 107 -28 0 -18 -29
-31 -57 -25 -43 8 -54 -13 -60 -111 -5 -72 -9 -85 -25 -91 -39 -12 -48 12 -48
126 0 60 3 115 6 124 7 18 49 22 60 5z m302 -3 c36 -19 54 -54 50 -97 l-3 -34
-82 -3 c-74 -2 -83 -5 -83 -22 0 -20 35 -50 59 -50 8 0 29 12 48 26 38 29 66
26 61 -7 -11 -78 -175 -89 -223 -15 -41 62 -22 170 34 201 34 18 105 19 139 1z
m268 2 c33 -15 66 -82 54 -112 -6 -19 -17 -21 -89 -24 -78 -3 -82 -4 -79 -25
2 -12 15 -28 30 -36 24 -14 29 -13 68 13 45 29 70 29 70 -3 0 -25 -43 -59 -86
-67 -45 -8 -113 15 -137 47 -44 60 -27 172 32 204 32 18 101 19 137 3z m140
-3 c5 -13 8 -13 27 0 36 25 100 19 131 -12 33 -32 40 -59 34 -129 -6 -67 -33
-100 -90 -109 -32 -6 -46 -3 -69 14 l-28 21 -3 -63 c-3 -59 -4 -62 -30 -65
-32 -4 -30 -20 -33 178 -1 80 2 153 7 163 11 21 46 23 54 2z m289 -120 c0
-117 -2 -130 -18 -133 -39 -8 -47 14 -47 138 0 64 3 120 7 124 4 4 19 6 33 4
l25 -3 0 -130z m636 118 c32 -19 43 -43 34 -73 -7 -23 -40 -27 -48 -6 -3 8
-17 22 -31 31 -47 31 -90 -5 -88 -74 3 -71 64 -94 110 -41 30 34 47 38 60 13
25 -48 -34 -97 -114 -97 -67 0 -104 25 -123 83 -18 57 -7 107 34 148 29 29 39
33 85 33 31 0 64 -7 81 -17z m286 -15 c49 -49 47 -151 -3 -201 -51 -52 -160
-42 -199 17 -41 62 -26 163 29 197 46 30 137 22 173 -13z m119 17 c5 -13 8
-13 27 0 28 20 86 19 108 -1 16 -15 20 -15 41 0 32 23 93 21 118 -4 18 -18 20
-33 20 -129 0 -102 -1 -110 -20 -116 -39 -12 -50 11 -50 106 0 76 -3 90 -19
98 -13 7 -24 6 -37 -4 -16 -11 -20 -29 -22 -103 -4 -95 -12 -110 -53 -97 -17
6 -19 18 -19 100 0 84 -2 95 -20 105 -15 8 -24 6 -40 -10 -17 -17 -20 -33 -20
-98 0 -47 -5 -83 -12 -90 -14 -14 -44 -16 -52 -3 -5 8 -11 196 -7 244 1 21 49
24 57 2z m-2392 -113 c-23 -106 -118 -166 -259 -166 -90 1 -146 28 -175 84
-11 21 -20 41 -20 43 0 3 51 2 113 -1 123 -5 203 9 287 51 53 27 62 25 54 -11z"/>
<path d="M9845 16686 c-192 -79 -593 -241 -890 -361 -297 -120 -543 -221 -547
-224 -4 -3 148 -69 337 -146 l345 -140 0 -470 0 -470 24 -36 c72 -105 307
-195 616 -235 164 -21 471 -31 718 -22 217 7 323 18 485 50 l107 21 0 546 -1
546 -339 170 c-187 94 -340 172 -340 175 0 3 9 11 20 18 17 11 61 -9 365 -160
l345 -173 0 -553 0 -553 23 6 c61 19 189 87 226 120 74 67 71 41 71 564 l0
469 73 30 c84 35 509 208 550 224 15 6 24 14 20 18 -7 7 -137 61 -638 263 -88
35 -383 155 -656 266 -320 129 -509 201 -530 200 -19 0 -186 -62 -384 -143z"/>
<path d="M9920 13323 c-62 -23 -110 -95 -110 -163 0 -185 243 -245 328 -80 60
116 -24 251 -154 249 -27 0 -56 -3 -64 -6z"/>
<path d="M7706 12914 c-65 -20 -146 -101 -169 -168 -16 -46 -17 -283 -17
-3262 l0 -3213 21 -55 c14 -39 35 -68 70 -100 92 -83 -127 -76 2350 -76 2183
0 2209 0 2262 20 59 22 126 82 154 138 17 36 18 163 21 3276 l2 3239 -24 54
c-31 66 -85 117 -154 143 -48 18 -78 20 -352 20 l-300 0 0 -100 0 -100 280 0
c294 0 328 -5 344 -45 3 -9 6 -1451 6 -3205 0 -3124 0 -3188 -19 -3211 l-19
-24 -2184 -3 c-1545 -1 -2191 1 -2209 9 -15 5 -31 22 -38 35 -16 35 -16 6362
0 6397 20 44 43 47 339 47 l280 0 0 100 0 100 -297 -1 c-235 0 -308 -4 -347
-15z"/>
<path d="M13760 11851 c0 -33 107 -1079 115 -1128 l6 -33 114 0 114 0 5 43 c4
23 26 267 51 542 24 275 47 524 51 553 l5 52 -230 0 -231 0 0 -29z"/>
<path d="M13880 10535 c-1 -3 -1 -47 -1 -97 l-1 -93 121 -3 121 -3 0 101 0
100 -120 0 c-66 0 -120 -2 -120 -5z"/>
<path d="M3800 9369 c-123 -49 -174 -202 -105 -315 24 -39 44 -56 93 -80 l62
-31 -58 -6 c-186 -20 -351 -104 -487 -249 -156 -166 -223 -347 -212 -578 15
-346 237 -626 572 -726 114 -33 289 -38 400 -9 292 74 517 299 590 590 25 100
23 275 -4 379 -70 266 -260 469 -521 556 -47 16 -115 32 -152 36 -69 7 -80 17
-31 27 16 3 45 20 67 38 122 102 91 302 -56 363 -42 18 -120 20 -158 5z m146
-48 c124 -56 138 -222 25 -298 -51 -34 -61 -30 -61 22 0 43 1 45 29 45 38 0
42 7 34 69 l-6 52 -91 -3 -91 -3 -3 -57 -3 -57 33 -3 c31 -3 33 -5 36 -45 4
-51 -8 -55 -58 -20 -117 79 -110 235 12 296 53 26 90 26 144 2z m87 -477 c113
-25 241 -91 325 -169 326 -302 313 -801 -28 -1080 -147 -120 -362 -183 -535
-155 -288 45 -504 228 -597 505 -20 60 -23 89 -22 205 0 118 4 145 27 215 115
349 476 557 830 479z"/>
<path d="M4096 8366 l-139 -113 -61 4 c-52 4 -65 2 -88 -16 -61 -49 -59 -153
5 -191 38 -24 87 -26 126 -5 36 18 65 78 57 116 -5 25 8 44 120 174 68 80 123
145 122 145 -2 0 -66 -51 -142 -114z"/>
<path d="M5980 9242 c-19 -9 -45 -33 -58 -52 -34 -50 -27 -128 14 -171 19 -20
152 -93 374 -204 190 -95 478 -241 640 -325 239 -123 303 -151 336 -151 86 -1
144 57 144 142 0 88 -11 97 -350 269 -913 464 -1007 510 -1035 510 -17 0 -46
-8 -65 -18z"/>
<path d="M15920 8841 l0 -211 73 0 73 0 23 -55 c38 -92 143 -165 238 -165 l33
0 0 108 0 107 128 0 c70 -1 164 1 210 3 l82 4 0 204 0 204 -414 0 c-228 0
-421 3 -430 6 -14 5 -16 -17 -16 -205z"/>
<path d="M14267 9030 c-340 -54 -603 -295 -683 -626 -21 -84 -23 -265 -5 -349
67 -309 299 -550 606 -631 93 -25 291 -25 390 -1 114 28 260 105 341 180 l70
65 84 -58 84 -57 23 56 c13 34 37 69 60 89 23 20 33 36 27 40 -6 4 -43 29 -82
56 l-71 49 21 51 c51 124 61 176 62 316 0 143 -10 203 -58 322 -74 182 -232
348 -412 429 -135 61 -323 90 -457 69z m222 -111 c209 -33 401 -163 504 -339
84 -145 117 -340 83 -505 -49 -245 -236 -450 -484 -533 -67 -23 -94 -26 -212
-26 -119 0 -144 3 -213 26 -375 125 -580 517 -462 886 110 342 438 548 784
491z"/>
<path d="M4804 6926 c-64 -28 -97 -104 -75 -175 19 -64 -64 -18 962 -540 409
-208 427 -214 496 -171 77 47 91 161 26 222 -26 24 -568 306 -1090 567 -232
115 -258 123 -319 97z"/>
<path d="M13513 6769 c-49 -14 -73 -52 -73 -115 0 -49 2 -54 40 -84 22 -18 40
-40 40 -51 0 -28 -40 -42 -208 -75 -91 -18 -142 -33 -142 -41 0 -7 14 -79 31
-160 29 -143 48 -193 70 -193 6 0 30 20 55 45 35 37 50 45 79 45 50 0 89 -23
109 -64 20 -42 20 -67 2 -111 -27 -64 -88 -80 -172 -45 -45 19 -64 8 -64 -37
1 -37 53 -310 61 -318 6 -5 277 52 311 66 54 22 56 37 10 79 -46 43 -57 73
-48 125 8 39 42 70 92 84 62 17 114 -9 138 -70 15 -38 15 -43 -4 -86 -32 -72
-28 -83 28 -83 62 1 317 53 317 65 0 6 -13 75 -29 155 -32 159 -31 200 7 200
12 -1 33 -7 47 -15 49 -28 121 -11 154 37 33 46 10 152 -37 176 -22 12 -55 16
-93 14 -12 -1 -40 -21 -62 -43 -67 -70 -83 -48 -127 174 -24 117 -31 137 -46
137 -11 0 -83 -13 -161 -30 -163 -35 -158 -34 -182 -17 -18 13 -18 15 3 62 11
26 21 59 21 74 0 44 -35 89 -77 100 -44 12 -47 12 -90 0z"/>
<path d="M5992 5515 c-184 -30 -205 -46 -138 -111 39 -38 49 -75 33 -123 -32
-93 -170 -106 -220 -22 -22 38 -21 79 3 119 24 39 26 70 5 79 -9 3 -92 -5
-186 -17 l-170 -23 6 -26 c11 -56 35 -238 35 -276 0 -61 -12 -73 -52 -56 -80
32 -102 35 -141 16 -41 -19 -67 -58 -67 -99 0 -49 30 -104 65 -120 58 -28 93
-19 152 37 60 56 74 31 105 -182 11 -80 22 -147 23 -149 2 -2 67 6 145 17 167
25 204 26 219 7 10 -11 8 -23 -8 -55 -12 -23 -21 -60 -21 -84 0 -79 74 -124
161 -98 48 15 79 59 79 114 0 32 -7 46 -40 79 -22 23 -40 47 -40 55 0 23 57
40 209 62 80 12 147 23 149 26 6 6 -37 288 -49 324 -17 47 -37 47 -86 -1 -37
-36 -50 -42 -82 -42 -91 3 -140 90 -102 183 15 34 55 61 93 61 13 0 41 -9 63
-20 54 -27 73 -26 81 7 6 24 -18 259 -33 321 -6 27 -6 27 -191 -3z"/>
<path d="M12413 794 c-22 -22 -25 -32 -20 -67 6 -44 27 -67 63 -67 50 0 74
100 34 140 -27 27 -46 25 -77 -6z"/>
</g>
</svg>
